<svg width="109" height="118" fill="none" xmlns="http://www.w3.org/2000/svg"><path d="M67.459 78.585c-11.194 9.618-22.795 16.466-32.487 19.772-4.848 1.654-9.194 2.413-12.76 2.209-3.564-.205-6.301-1.369-8.022-3.508-1.72-2.139-2.328-5.132-1.872-8.792.457-3.661 1.973-7.938 4.431-12.562 4.916-9.245 13.548-19.782 24.742-29.4 11.193-9.618 22.794-16.465 32.487-19.772 4.847-1.653 9.193-2.413 12.759-2.208 3.565.205 6.301 1.368 8.022 3.507 1.72 2.14 2.328 5.133 1.872 8.793-.457 3.66-1.973 7.937-4.431 12.561-4.916 9.245-13.548 19.783-24.742 29.4z" stroke="#FEF9E9"/><path d="M74.775 62.363c.056 15.047-2.215 28.657-5.916 38.492-1.85 4.919-4.05 8.869-6.472 11.582-2.423 2.714-5.029 4.15-7.71 4.16-2.68.011-5.296-1.404-7.74-4.098-2.442-2.694-4.67-6.625-6.558-11.53-3.775-9.805-6.148-23.396-6.204-38.443-.057-15.047 2.214-28.656 5.915-38.492 1.85-4.919 4.05-8.868 6.472-11.581 2.423-2.714 5.029-4.15 7.71-4.16 2.68-.012 5.297 1.404 7.74 4.098 2.442 2.694 4.67 6.625 6.559 11.53 3.774 9.804 6.147 23.395 6.204 38.442z" stroke="#FEF9E9"/><path d="M67.413 46.265c11.22 9.585 19.882 20.096 24.824 29.326 2.471 4.617 4 8.89 4.466 12.549.466 3.658-.133 6.653-1.847 8.798-1.715 2.144-4.449 3.316-8.013 3.531-3.565.216-7.913-.53-12.765-2.17-9.702-3.278-21.322-10.09-32.542-19.675-11.22-9.584-19.882-20.095-24.824-29.326-2.471-4.616-4-8.889-4.466-12.548-.466-3.658.133-6.654 1.847-8.798 1.715-2.144 4.449-3.316 8.013-3.531 3.565-.216 7.913.53 12.765 2.17 9.702 3.278 21.322 10.09 32.542 19.674z" stroke="#FEF9E9"/><ellipse cx="59.41" cy="8.156" rx="6.698" ry="7.651" fill="#FEF9E9"/><ellipse cx="92.549" cy="73.74" rx="6.698" ry="7.651" fill="#FEF9E9"/><ellipse cx="14.285" cy="77.383" rx="6.698" ry="7.651" fill="#FEF9E9"/></svg>