<svg width="70" height="137" viewBox="0 0 70 137" fill="none" xmlns="http://www.w3.org/2000/svg">
<path d="M33.0444 16.9843C38.551 16.9843 42.7977 17.591 45.7843 18.8043C48.771 19.9243 51.3377 21.1376 53.4843 22.4443C54.6043 23.0976 55.491 23.611 56.1444 23.9843C56.891 24.2643 57.591 24.4043 58.2444 24.4043C59.1777 24.4043 59.831 23.8909 60.2044 22.8643C60.671 21.8376 61.0444 20.2976 61.3244 18.2443H64.5443C64.451 20.0176 64.311 22.1643 64.1244 24.6843C64.031 27.1109 63.9377 30.3309 63.8444 34.3443C63.8444 38.3576 63.8444 43.6309 63.8444 50.1643H60.6243C59.971 44.3776 58.711 39.2443 56.8444 34.7643C55.071 30.1909 52.4577 26.5976 49.0043 23.9843C45.551 21.3709 40.9777 20.0643 35.2844 20.0643C29.6844 20.0643 25.4844 21.3243 22.6844 23.8443C19.8844 26.2709 18.4843 29.3976 18.4843 33.2243C18.4843 35.371 18.811 37.3776 19.4643 39.2443C20.211 41.0176 21.5177 42.8843 23.3843 44.8443C25.3443 46.8043 28.0977 49.0909 31.6444 51.7043C35.2844 54.3176 39.951 57.4443 45.6444 61.0843C50.1244 63.8843 54.1377 66.7776 57.6844 69.7643C61.231 72.6576 64.031 75.9243 66.0844 79.5643C68.231 83.2043 69.3044 87.5443 69.3044 92.5843C69.3044 98.7443 67.7177 103.831 64.5443 107.844C61.371 111.858 57.1244 114.891 51.8044 116.944C46.5777 118.904 40.8377 119.884 34.5844 119.884C28.7977 119.884 24.271 119.278 21.0043 118.064C17.7377 116.851 15.1243 115.778 13.1643 114.844C11.951 114.191 10.8777 113.678 9.94435 113.304C9.01102 112.931 8.12435 112.744 7.28435 112.744C6.35102 112.744 5.65102 113.258 5.18435 114.284C4.81102 115.311 4.48435 116.851 4.20435 118.904H0.984348C1.17102 116.664 1.26435 114.051 1.26435 111.064C1.35768 108.078 1.40435 104.204 1.40435 99.4443C1.49768 94.591 1.54435 88.4776 1.54435 81.1043H4.76435C5.23102 87.451 6.11768 92.911 7.42435 97.4843C8.73102 101.964 10.5043 105.651 12.7443 108.544C15.0777 111.344 17.971 113.444 21.4243 114.844C24.971 116.151 29.171 116.804 34.0244 116.804C38.411 116.804 41.9577 116.244 44.6644 115.124C47.4644 113.911 49.5177 112.231 50.8244 110.084C52.2244 107.938 52.9244 105.371 52.9244 102.384C52.9244 100.424 52.5977 98.5576 51.9444 96.7843C51.291 95.011 50.031 93.191 48.1644 91.3243C46.2977 89.3643 43.6377 87.0776 40.1844 84.4643C36.731 81.851 32.2043 78.6309 26.6043 74.8043C22.2177 72.0043 18.111 69.1109 14.2843 66.1243C10.4577 63.1376 7.37768 59.7776 5.04435 56.0443C2.80435 52.2176 1.68435 47.7376 1.68435 42.6043C1.68435 36.7243 3.13102 31.9176 6.02435 28.1843C9.01102 24.3576 12.8843 21.5576 17.6444 19.7843C22.4977 17.9176 27.631 16.9843 33.0444 16.9843ZM29.8243 0.324281V136.404H27.0244V0.324281H29.8243ZM43.4044 0.324281V136.404H40.6043V0.324281H43.4044Z" fill="#FEF9E9"/>
</svg>
